<mxfile host="app.diagrams.net" agent="Mozilla/5.0 (Windows NT 10.0; Win64; x64) AppleWebKit/537.36 (KHTML, like Gecko) Chrome/129.0.0.0 Safari/537.36" version="24.7.14">
  <diagram name="Страница — 1" id="uZZm-RgfxIPgKQClYCut">
    <mxGraphModel dx="410" dy="648" grid="1" gridSize="10" guides="1" tooltips="1" connect="1" arrows="1" fold="1" page="1" pageScale="1" pageWidth="827" pageHeight="1169" math="0" shadow="0">
      <root>
        <mxCell id="0" />
        <mxCell id="1" parent="0" />
        <mxCell id="JuBGMEWNB3KMsNgGW9WW-1" value="Видеоконтроль за обьектом" style="rounded=0;whiteSpace=wrap;html=1;" vertex="1" parent="1">
          <mxGeometry x="340" y="280" width="260" height="100" as="geometry" />
        </mxCell>
        <mxCell id="JuBGMEWNB3KMsNgGW9WW-2" value="" style="endArrow=classic;html=1;rounded=0;" edge="1" parent="1">
          <mxGeometry width="50" height="50" relative="1" as="geometry">
            <mxPoint x="240" y="300" as="sourcePoint" />
            <mxPoint x="340" y="300" as="targetPoint" />
          </mxGeometry>
        </mxCell>
        <mxCell id="JuBGMEWNB3KMsNgGW9WW-3" value="Данные &lt;br style=&quot;font-size: 9px;&quot;&gt;пользователя" style="edgeLabel;html=1;align=center;verticalAlign=middle;resizable=0;points=[];fontSize=9;" vertex="1" connectable="0" parent="JuBGMEWNB3KMsNgGW9WW-2">
          <mxGeometry x="0.2549" y="-2" relative="1" as="geometry">
            <mxPoint x="-21" y="-22" as="offset" />
          </mxGeometry>
        </mxCell>
        <mxCell id="JuBGMEWNB3KMsNgGW9WW-4" value="" style="endArrow=classic;html=1;rounded=0;entryX=-0.004;entryY=-0.029;entryDx=0;entryDy=0;entryPerimeter=0;" edge="1" parent="1">
          <mxGeometry width="50" height="50" relative="1" as="geometry">
            <mxPoint x="401.04" y="192.9" as="sourcePoint" />
            <mxPoint x="399.99999999999994" y="279.9999999999999" as="targetPoint" />
          </mxGeometry>
        </mxCell>
        <mxCell id="JuBGMEWNB3KMsNgGW9WW-5" value="Правила&lt;br style=&quot;font-size: 8px;&quot;&gt;уровней&lt;br style=&quot;font-size: 8px;&quot;&gt;доступа" style="edgeLabel;html=1;align=center;verticalAlign=middle;resizable=0;points=[];fontSize=8;" vertex="1" connectable="0" parent="JuBGMEWNB3KMsNgGW9WW-4">
          <mxGeometry x="0.2549" y="-2" relative="1" as="geometry">
            <mxPoint x="27" y="-8" as="offset" />
          </mxGeometry>
        </mxCell>
        <mxCell id="JuBGMEWNB3KMsNgGW9WW-6" value="" style="endArrow=classic;html=1;rounded=0;entryX=-0.002;entryY=0.398;entryDx=0;entryDy=0;entryPerimeter=0;" edge="1" parent="1">
          <mxGeometry width="50" height="50" relative="1" as="geometry">
            <mxPoint x="240" y="340" as="sourcePoint" />
            <mxPoint x="340" y="340.00000000000006" as="targetPoint" />
          </mxGeometry>
        </mxCell>
        <mxCell id="JuBGMEWNB3KMsNgGW9WW-7" value="Данные&lt;br style=&quot;font-size: 9px;&quot;&gt;с камер" style="edgeLabel;html=1;align=center;verticalAlign=middle;resizable=0;points=[];fontSize=9;" vertex="1" connectable="0" parent="JuBGMEWNB3KMsNgGW9WW-6">
          <mxGeometry x="0.2549" y="-2" relative="1" as="geometry">
            <mxPoint x="-23" y="-22" as="offset" />
          </mxGeometry>
        </mxCell>
        <mxCell id="JuBGMEWNB3KMsNgGW9WW-8" value="" style="endArrow=classic;html=1;rounded=0;entryX=-0.007;entryY=0.892;entryDx=0;entryDy=0;entryPerimeter=0;" edge="1" parent="1">
          <mxGeometry width="50" height="50" relative="1" as="geometry">
            <mxPoint x="240" y="370" as="sourcePoint" />
            <mxPoint x="339.99999999999994" y="369.20000000000005" as="targetPoint" />
          </mxGeometry>
        </mxCell>
        <mxCell id="JuBGMEWNB3KMsNgGW9WW-9" value="События системы" style="edgeLabel;html=1;align=right;verticalAlign=middle;resizable=0;points=[];fontSize=9;" vertex="1" connectable="0" parent="JuBGMEWNB3KMsNgGW9WW-8">
          <mxGeometry x="0.2549" y="-2" relative="1" as="geometry">
            <mxPoint x="22" y="-11" as="offset" />
          </mxGeometry>
        </mxCell>
        <mxCell id="JuBGMEWNB3KMsNgGW9WW-10" value="" style="endArrow=classic;html=1;rounded=0;entryX=-0.004;entryY=-0.029;entryDx=0;entryDy=0;entryPerimeter=0;" edge="1" parent="1">
          <mxGeometry width="50" height="50" relative="1" as="geometry">
            <mxPoint x="481.04" y="192.9" as="sourcePoint" />
            <mxPoint x="479.99999999999994" y="279.9999999999999" as="targetPoint" />
          </mxGeometry>
        </mxCell>
        <mxCell id="JuBGMEWNB3KMsNgGW9WW-11" value="Правила&lt;br style=&quot;font-size: 8px;&quot;&gt;безопастности" style="edgeLabel;html=1;align=center;verticalAlign=middle;resizable=0;points=[];fontSize=8;" vertex="1" connectable="0" parent="JuBGMEWNB3KMsNgGW9WW-10">
          <mxGeometry x="0.2549" y="-2" relative="1" as="geometry">
            <mxPoint x="42" y="-8" as="offset" />
          </mxGeometry>
        </mxCell>
        <mxCell id="JuBGMEWNB3KMsNgGW9WW-12" value="" style="endArrow=classic;html=1;rounded=0;entryX=0.004;entryY=0.8;entryDx=0;entryDy=0;entryPerimeter=0;" edge="1" parent="1">
          <mxGeometry width="50" height="50" relative="1" as="geometry">
            <mxPoint x="600" y="290" as="sourcePoint" />
            <mxPoint x="701" y="290" as="targetPoint" />
          </mxGeometry>
        </mxCell>
        <mxCell id="JuBGMEWNB3KMsNgGW9WW-13" value="Просмотр видео в&amp;nbsp;&lt;br style=&quot;font-size: 8px;&quot;&gt;&lt;div style=&quot;text-align: justify; font-size: 8px;&quot;&gt;реальном времени&lt;/div&gt;" style="edgeLabel;html=1;align=right;verticalAlign=middle;resizable=0;points=[];fontSize=8;" vertex="1" connectable="0" parent="JuBGMEWNB3KMsNgGW9WW-12">
          <mxGeometry x="0.2549" y="-2" relative="1" as="geometry">
            <mxPoint x="17" y="-22" as="offset" />
          </mxGeometry>
        </mxCell>
        <mxCell id="JuBGMEWNB3KMsNgGW9WW-14" value="" style="endArrow=classic;html=1;rounded=0;entryX=0.004;entryY=0.8;entryDx=0;entryDy=0;entryPerimeter=0;" edge="1" parent="1">
          <mxGeometry width="50" height="50" relative="1" as="geometry">
            <mxPoint x="600" y="370" as="sourcePoint" />
            <mxPoint x="701" y="370" as="targetPoint" />
          </mxGeometry>
        </mxCell>
        <mxCell id="JuBGMEWNB3KMsNgGW9WW-15" value="&lt;div style=&quot;text-align: justify;&quot;&gt;Записи архива&lt;/div&gt;" style="edgeLabel;html=1;align=center;verticalAlign=middle;resizable=0;points=[];fontSize=8;" vertex="1" connectable="0" parent="JuBGMEWNB3KMsNgGW9WW-14">
          <mxGeometry x="0.2549" y="-2" relative="1" as="geometry">
            <mxPoint x="-24" y="-12" as="offset" />
          </mxGeometry>
        </mxCell>
        <mxCell id="JuBGMEWNB3KMsNgGW9WW-16" value="" style="endArrow=classic;html=1;rounded=0;entryX=0.004;entryY=0.8;entryDx=0;entryDy=0;entryPerimeter=0;" edge="1" parent="1">
          <mxGeometry width="50" height="50" relative="1" as="geometry">
            <mxPoint x="600" y="310" as="sourcePoint" />
            <mxPoint x="701" y="310" as="targetPoint" />
          </mxGeometry>
        </mxCell>
        <mxCell id="JuBGMEWNB3KMsNgGW9WW-17" value="&lt;div style=&quot;text-align: justify;&quot;&gt;Отчеты&amp;nbsp;&lt;/div&gt;" style="edgeLabel;html=1;align=center;verticalAlign=middle;resizable=0;points=[];fontSize=8;" vertex="1" connectable="0" parent="JuBGMEWNB3KMsNgGW9WW-16">
          <mxGeometry x="0.2549" y="-2" relative="1" as="geometry">
            <mxPoint x="-14" y="-12" as="offset" />
          </mxGeometry>
        </mxCell>
        <mxCell id="JuBGMEWNB3KMsNgGW9WW-18" value="" style="endArrow=classic;html=1;rounded=0;entryX=0.004;entryY=0.8;entryDx=0;entryDy=0;entryPerimeter=0;" edge="1" parent="1">
          <mxGeometry width="50" height="50" relative="1" as="geometry">
            <mxPoint x="600" y="340" as="sourcePoint" />
            <mxPoint x="701" y="340" as="targetPoint" />
          </mxGeometry>
        </mxCell>
        <mxCell id="JuBGMEWNB3KMsNgGW9WW-19" value="&lt;div style=&quot;text-align: justify;&quot;&gt;Уведомления&lt;/div&gt;" style="edgeLabel;html=1;align=center;verticalAlign=middle;resizable=0;points=[];fontSize=8;" vertex="1" connectable="0" parent="JuBGMEWNB3KMsNgGW9WW-18">
          <mxGeometry x="0.2549" y="-2" relative="1" as="geometry">
            <mxPoint x="-23" y="-12" as="offset" />
          </mxGeometry>
        </mxCell>
        <mxCell id="JuBGMEWNB3KMsNgGW9WW-20" value="" style="endArrow=classic;html=1;rounded=0;entryX=0.079;entryY=1.026;entryDx=0;entryDy=0;entryPerimeter=0;" edge="1" parent="1">
          <mxGeometry width="50" height="50" relative="1" as="geometry">
            <mxPoint x="450" y="470" as="sourcePoint" />
            <mxPoint x="450" y="380" as="targetPoint" />
          </mxGeometry>
        </mxCell>
        <mxCell id="JuBGMEWNB3KMsNgGW9WW-21" value="База данных" style="edgeLabel;html=1;align=center;verticalAlign=middle;resizable=0;points=[];fontSize=8;" vertex="1" connectable="0" parent="JuBGMEWNB3KMsNgGW9WW-20">
          <mxGeometry x="0.2549" y="-2" relative="1" as="geometry">
            <mxPoint x="27" y="-4" as="offset" />
          </mxGeometry>
        </mxCell>
        <mxCell id="JuBGMEWNB3KMsNgGW9WW-22" value="" style="endArrow=classic;html=1;rounded=0;entryX=0.079;entryY=1.026;entryDx=0;entryDy=0;entryPerimeter=0;" edge="1" parent="1">
          <mxGeometry width="50" height="50" relative="1" as="geometry">
            <mxPoint x="530" y="470" as="sourcePoint" />
            <mxPoint x="530" y="380" as="targetPoint" />
          </mxGeometry>
        </mxCell>
        <mxCell id="JuBGMEWNB3KMsNgGW9WW-23" value="Сервер видеоконтроля" style="edgeLabel;html=1;align=center;verticalAlign=middle;resizable=0;points=[];fontSize=8;" vertex="1" connectable="0" parent="JuBGMEWNB3KMsNgGW9WW-22">
          <mxGeometry x="0.2549" y="-2" relative="1" as="geometry">
            <mxPoint x="58" y="-4" as="offset" />
          </mxGeometry>
        </mxCell>
      </root>
    </mxGraphModel>
  </diagram>
</mxfile>
